<svg width="100%" height="100%" viewBox="0 0 1141 776" fill="none" xmlns="http://www.w3.org/2000/svg">
<rect width="100%" height="100%" fill="white"/>
<g id="undraw_podcast_q6p7 1">
<g clip-path="url(#clip0)">
<path id="Vector" d="M468.6 764.57C545.67 721.92 633.71 708.29 719.75 726.57C841.67 752.49 994.9 742.33 1024.58 542.36C1075.27 200.84 862.85 110.7 862.85 110.7C862.85 110.7 721.59 98.87 638.06 53.83C519.41 -10.17 383.79 -18.32 264.54 35.83C188.28 70.43 125.48 118.61 114.75 184.76C84.75 369.76 134.02 471.69 41.85 532.08C-50.32 592.47 28.45 758.27 99.11 752.53C169.77 746.79 329.44 683.82 391.66 756.76C413.76 782.63 441.72 779.45 468.6 764.57Z" fill="url(#paint0_linear)"/>
<path id="leaves" d="M995.06 611C995.06 611 1025.87 506.41 989.28 429.42C973.93 397.11 968.83 360.84 975.92 325.78C979.314 309.149 984.224 292.865 990.59 277.13" stroke="#535461" stroke-width="2" stroke-miterlimit="10"/>
<path id="leaves" d="M967.83 228.47C967.83 241.29 991.04 278.47 991.04 278.47C991.04 278.47 1014.25 241.3 1014.25 228.47C1014.25 222.314 1011.8 216.411 1007.45 212.058C1003.1 207.705 997.196 205.26 991.04 205.26C984.884 205.26 978.981 207.705 974.628 212.058C970.275 216.411 967.83 222.314 967.83 228.47Z" fill="#58A9F3"/>
<path id="leaves" d="M929.46 299.47C936.46 310.23 976.11 328.82 976.11 328.82C976.11 328.82 975.39 285 968.42 274.24C966.763 271.679 964.619 269.47 962.108 267.738C959.598 266.006 956.771 264.786 953.788 264.146C950.806 263.507 947.727 263.461 944.728 264.012C941.728 264.562 938.866 265.698 936.305 267.355C933.744 269.012 931.535 271.156 929.803 273.667C928.071 276.177 926.851 279.004 926.211 281.987C925.572 284.969 925.526 288.048 926.077 291.047C926.627 294.047 927.763 296.909 929.42 299.47H929.46Z" fill="#58A9F3"/>
<path id="leaves" d="M931.11 420.81C942.56 426.58 986.2 422.59 986.2 422.59C986.2 422.59 963.46 385.13 952.01 379.36C949.288 377.988 946.323 377.165 943.283 376.939C940.244 376.712 937.189 377.087 934.294 378.041C931.4 378.995 928.721 380.51 926.412 382.499C924.102 384.489 922.207 386.913 920.835 389.635C919.463 392.357 918.64 395.322 918.413 398.362C918.187 401.401 918.562 404.456 919.516 407.351C920.47 410.245 921.985 412.924 923.974 415.233C925.964 417.543 928.388 419.438 931.11 420.81Z" fill="#58A9F3"/>
<path id="leaves" d="M953.11 512.33C963.42 519.95 1007.11 523.4 1007.11 523.4C1007.11 523.4 991.03 482.63 980.72 475.01C978.27 473.197 975.486 471.885 972.528 471.147C969.571 470.41 966.497 470.263 963.482 470.714C960.467 471.165 957.571 472.205 954.958 473.775C952.346 475.345 950.068 477.415 948.255 479.865C946.442 482.315 945.13 485.099 944.392 488.057C943.655 491.014 943.508 494.088 943.959 497.103C944.41 500.118 945.45 503.014 947.02 505.627C948.59 508.239 950.66 510.517 953.11 512.33Z" fill="#58A9F3"/>
<path id="leaves" d="M1024.85 331.3C1015.66 340.23 972.85 349.48 972.85 349.48C972.85 349.48 983.34 306.93 992.53 298C994.713 295.859 997.297 294.171 1000.13 293.032C1002.97 291.893 1006.01 291.326 1009.06 291.363C1012.12 291.4 1015.14 292.041 1017.95 293.249C1020.76 294.457 1023.3 296.208 1025.43 298.401C1027.56 300.595 1029.24 303.187 1030.36 306.03C1031.49 308.873 1032.04 311.91 1031.99 314.967C1031.94 318.024 1031.28 321.041 1030.06 323.844C1028.84 326.647 1027.07 329.181 1024.87 331.3H1024.85Z" fill="#58A9F3"/>
<path id="leaves" d="M1049.11 438.66C1037.66 444.43 994.02 440.44 994.02 440.44C994.02 440.44 1016.76 402.98 1028.21 397.21C1030.93 395.838 1033.9 395.015 1036.94 394.789C1039.98 394.562 1043.03 394.937 1045.93 395.891C1048.82 396.845 1051.5 398.36 1053.81 400.349C1056.12 402.339 1058.01 404.763 1059.39 407.485C1060.76 410.207 1061.58 413.172 1061.81 416.212C1062.03 419.251 1061.66 422.306 1060.7 425.201C1059.75 428.095 1058.23 430.774 1056.25 433.083C1054.26 435.393 1051.83 437.288 1049.11 438.66Z" fill="#58A9F3"/>
<path id="leaves" d="M1058.45 546.25C1048.14 553.87 1004.45 557.32 1004.45 557.32C1004.45 557.32 1020.53 516.55 1030.84 508.93C1033.29 507.077 1036.08 505.728 1039.05 504.961C1042.02 504.193 1045.12 504.024 1048.16 504.461C1051.2 504.899 1054.12 505.935 1056.75 507.509C1059.39 509.084 1061.69 511.165 1063.51 513.633C1065.34 516.102 1066.65 518.908 1067.39 521.889C1068.12 524.87 1068.26 527.967 1067.78 531C1067.31 534.034 1066.24 536.944 1064.64 539.561C1063.04 542.179 1060.93 544.452 1058.44 546.25H1058.45Z" fill="#58A9F3"/>
<path id="leaves" d="M858.43 558.37C858.43 558.37 872.86 509.37 855.72 473.3C848.434 458.217 846.237 441.178 849.46 424.74C851.052 416.949 853.355 409.321 856.34 401.95" stroke="#535461" stroke-width="2" stroke-miterlimit="10"/>
<path id="leaves" d="M845.67 379.15C845.67 385.15 856.54 402.57 856.54 402.57C856.54 402.57 867.41 385.15 867.41 379.15C867.41 376.266 866.264 373.5 864.225 371.46C862.185 369.421 859.419 368.275 856.535 368.275C853.651 368.275 850.885 369.421 848.845 371.46C846.806 373.5 845.66 376.266 845.66 379.15H845.67Z" fill="#58A9F3"/>
<path id="leaves" d="M827.7 412.41C830.96 417.41 849.56 426.16 849.56 426.16C849.56 426.16 849.22 405.63 845.96 400.59C845.184 399.391 844.179 398.357 843.003 397.546C841.827 396.735 840.503 396.164 839.107 395.865C837.71 395.566 836.268 395.545 834.864 395.803C833.459 396.062 832.119 396.594 830.92 397.37C829.721 398.146 828.687 399.151 827.876 400.327C827.065 401.502 826.494 402.827 826.195 404.223C825.896 405.62 825.875 407.062 826.133 408.466C826.392 409.871 826.924 411.211 827.7 412.41Z" fill="#58A9F3"/>
<path id="leaves" d="M828.48 469.26C833.84 471.96 854.29 470.1 854.29 470.1C854.29 470.1 843.64 452.55 838.29 449.84C837.015 449.197 835.626 448.812 834.202 448.706C832.777 448.6 831.347 448.776 829.99 449.223C827.251 450.126 824.983 452.08 823.685 454.655C822.387 457.23 822.165 460.216 823.068 462.955C823.971 465.694 825.925 467.962 828.5 469.26H828.48Z" fill="#58A9F3"/>
<path id="leaves" d="M838.76 512.14C843.59 515.71 864.06 517.33 864.06 517.33C864.06 517.33 856.52 498.23 851.7 494.66C850.552 493.811 849.247 493.197 847.861 492.852C846.475 492.507 845.035 492.438 843.623 492.65C842.21 492.862 840.854 493.349 839.63 494.086C838.406 494.822 837.339 495.792 836.49 496.94C835.641 498.088 835.026 499.393 834.682 500.779C834.337 502.165 834.268 503.605 834.48 505.017C834.692 506.43 835.179 507.786 835.916 509.01C836.652 510.234 837.622 511.301 838.77 512.15L838.76 512.14Z" fill="#58A9F3"/>
<path id="leaves" d="M872.39 427.33C868.08 431.51 848.01 435.85 848.01 435.85C848.01 435.85 852.93 415.91 857.23 411.73C859.299 409.721 862.081 408.616 864.964 408.658C867.847 408.7 870.596 409.886 872.605 411.955C874.614 414.024 875.719 416.806 875.677 419.689C875.635 422.572 874.449 425.321 872.38 427.33H872.39Z" fill="#58A9F3"/>
<path id="leaves" d="M883.78 477.63C878.42 480.33 857.97 478.47 857.97 478.47C857.97 478.47 868.62 460.92 873.97 458.21C876.545 456.912 879.531 456.69 882.27 457.593C885.009 458.496 887.277 460.45 888.575 463.025C889.873 465.6 890.095 468.586 889.192 471.325C888.289 474.064 886.335 476.332 883.76 477.63H883.78Z" fill="#58A9F3"/>
<path id="leaves" d="M888.11 528C883.28 531.57 862.81 533.19 862.81 533.19C862.81 533.19 870.35 514.09 875.17 510.52C876.318 509.67 877.622 509.055 879.007 508.709C880.393 508.364 881.833 508.294 883.245 508.505C884.657 508.716 886.015 509.203 887.239 509.938C888.463 510.673 889.53 511.642 890.38 512.79C891.23 513.938 891.845 515.242 892.191 516.627C892.536 518.013 892.606 519.453 892.395 520.865C892.184 522.278 891.697 523.635 890.962 524.859C890.227 526.083 889.258 527.15 888.11 528Z" fill="#58A9F3"/>
<path id="head" d="M405.75 212.22H397.22V153.22H405.75C412.264 153.22 418.511 155.808 423.117 160.413C427.722 165.019 430.31 171.266 430.31 177.78V187.6C430.318 190.83 429.688 194.03 428.458 197.017C427.227 200.004 425.419 202.718 423.138 205.005C420.856 207.292 418.146 209.107 415.163 210.345C412.179 211.583 408.98 212.22 405.75 212.22Z" fill="#DFE6F5"/>
<path id="Vector_2" d="M396.01 212.22H398.43C401.76 212.22 404.46 209.52 404.46 206.19V159.3C404.46 155.97 401.76 153.27 398.43 153.27H396.01C392.68 153.27 389.98 155.97 389.98 159.3V206.19C389.98 209.52 392.68 212.22 396.01 212.22Z" fill="#535461"/>
<g id="Vector_3" opacity="0.1">
<path id="Vector_4" opacity="0.1" d="M405.75 212.22H397.22V153.22H405.75C412.264 153.22 418.511 155.808 423.117 160.413C427.722 165.019 430.31 171.266 430.31 177.78V187.6C430.318 190.83 429.688 194.03 428.458 197.017C427.227 200.004 425.419 202.718 423.138 205.005C420.856 207.292 418.146 209.107 415.163 210.345C412.179 211.583 408.98 212.22 405.75 212.22Z" fill="black"/>
<path id="Vector_5" opacity="0.1" d="M396.01 212.22H398.43C401.76 212.22 404.46 209.52 404.46 206.19V159.3C404.46 155.97 401.76 153.27 398.43 153.27H396.01C392.68 153.27 389.98 155.97 389.98 159.3V206.19C389.98 209.52 392.68 212.22 396.01 212.22Z" fill="black"/>
</g>
<path id="Vector_6" d="M409.81 184.45H260.72V339.1H409.81V184.45Z" fill="#865A61"/>
<path id="Vector_7" opacity="0.1" d="M409.81 163.15H260.72V317.8H409.81V163.15Z" fill="black"/>
<path id="Vector_8" d="M404.72 312.71L395.72 378.11L391.48 408.85L389.92 420.14L376.85 445.62L352.85 492.38L306.55 497.94L225.11 383.09C225.11 383.09 182.47 301.6 247.3 309C283.65 313.16 292.3 280.62 292.95 251.23C293.113 236.432 291.773 221.657 288.95 207.13L353.77 238.62C352.263 245.64 351.13 252.09 350.37 257.97C347.21 282.03 349.83 297.03 355.31 306.12C369.9 330.33 404.72 312.71 404.72 312.71Z" fill="#FDC2CC"/>
<path id="Vector_9" opacity="0.1" d="M353.79 238.63C352.283 245.65 351.15 252.1 350.39 257.98C343.664 259.894 336.704 260.864 329.71 260.86C316.833 260.881 304.169 257.571 292.95 251.25C293.113 236.452 291.773 221.677 288.95 207.15L353.79 238.63Z" fill="black"/>
<path id="head" d="M329.71 259C371.137 259 404.72 225.417 404.72 183.99C404.72 142.563 371.137 108.98 329.71 108.98C288.283 108.98 254.7 142.563 254.7 183.99C254.7 225.417 288.283 259 329.71 259Z" fill="#FDC2CC"/>
<path id="Vector_10" d="M429.73 610.9L121.35 635L171.35 576.66C225 543.88 224.54 498.82 217.41 470.87C215.197 461.913 211.854 453.273 207.46 445.16L314.05 445.66H314.95L323.71 465.57L324.11 466.47L330.63 481.28L352.85 441.46L360.58 429L364.9 422C364.9 422 428.8 407.18 429.72 445.15C429.831 449.51 429.66 453.872 429.21 458.21C426.03 488.77 409.31 509.09 395.46 522.94C379.72 538.67 429.73 610.9 429.73 610.9Z" fill="#EC7580"/>
<path id="Vector_11" d="M392.9 529.54C390.64 538.54 396.34 554.01 403.9 569.2C367.65 573.1 327.9 571.07 327.9 571.07L287.11 582.19L172.29 615.53C167.29 609.06 163.29 600.93 159.98 591.77L171.36 578.49C207.17 556.61 218.87 529.26 220.58 505.18C221.26 494.251 220.194 483.283 217.42 472.69C215.209 463.74 211.869 455.107 207.48 447L314.07 447.5H314.97L323.73 467.41L324.13 468.31L330.65 483.12L352.87 443.3L360.58 430.84L364.9 423.84C364.9 423.84 428.8 409 429.73 447C429.841 451.36 429.67 455.722 429.22 460.06C426.04 490.62 409.32 510.94 395.47 524.79C394.194 526.108 393.305 527.751 392.9 529.54Z" fill="#EC7580"/>
<path id="Vector_12" d="M633.46 577.56C631.61 599.78 577.9 570.15 577.9 570.15C577.9 570.15 561.23 564.59 504.74 528.48C476.06 510.151 453.444 483.746 439.74 452.59C437.579 447.774 435.771 442.808 434.33 437.73L473.25 409L484.6 426.35L522.33 484L577.89 521C577.89 521 635.31 555.34 633.46 577.56Z" fill="#FDC2CC"/>
<path id="Vector_13" d="M1127.96 650.72H60.23L167.12 619.09L434.34 540.01L604.74 489.58H824.22L1127.96 650.72Z" fill="#CBCDDA"/>
<path id="Vector_14" d="M60.23 650.72L57.45 699.8H1129.81L1127.96 650.72H60.23Z" fill="#CBCDDA"/>
<path id="Vector_15" opacity="0.1" d="M60.23 650.72L57.45 699.8H1129.81L1127.96 650.72H60.23Z" fill="black"/>
<path id="Vector_16" d="M340.16 581.31L565.85 558.12L568.63 602.57L465.47 612.8C458.354 613.378 451.191 612.821 444.25 611.15L339.97 584.21C339.637 584.123 339.346 583.923 339.145 583.644C338.944 583.365 338.846 583.025 338.868 582.682C338.891 582.339 339.032 582.014 339.268 581.764C339.503 581.513 339.819 581.353 340.16 581.31Z" fill="#535461"/>
<path id="Vector_17" opacity="0.2" d="M340.16 581.31L565.85 558.12L568.63 602.57L465.47 612.8C458.354 613.378 451.191 612.821 444.25 611.15L339.97 584.21C339.637 584.123 339.346 583.923 339.145 583.644C338.944 583.365 338.846 583.025 338.868 582.682C338.891 582.339 339.032 582.014 339.268 581.764C339.503 581.513 339.819 581.353 340.16 581.31Z" fill="black"/>
<path id="Vector_18" d="M340.16 580.38L567.71 557.19L570.49 601.64L467.32 610C460.209 610.586 453.05 610.04 446.11 608.38L339.97 583.29C339.631 583.208 339.332 583.009 339.126 582.728C338.919 582.448 338.819 582.103 338.841 581.755C338.864 581.407 339.009 581.079 339.25 580.827C339.491 580.576 339.813 580.417 340.16 580.38Z" fill="#535461"/>
<path id="Vector_19" opacity="0.3" d="M394.11 582L514.43 569.74L515.9 593.24L461.35 597.67C457.588 597.976 453.8 597.683 450.13 596.8L394.01 583.53C393.834 583.485 393.679 583.38 393.572 583.232C393.465 583.085 393.413 582.905 393.425 582.724C393.437 582.542 393.512 582.37 393.637 582.238C393.762 582.106 393.929 582.022 394.11 582Z" fill="white"/>
<path id="Vector_20" opacity="0.1" d="M484.6 426.37C483.87 427.37 482.6 427.82 480.66 427.54C462.14 424.76 440.84 451.62 440.84 451.62C440.84 451.62 440.46 451.98 439.77 452.62C437.609 447.804 435.801 442.838 434.36 437.76L473.25 409L484.6 426.37Z" fill="black"/>
<path id="Vector_21" d="M480.66 425.69C462.14 422.91 440.84 449.77 440.84 449.77C440.84 449.77 415.84 473.85 399.17 457.18C383.02 441.03 354.71 443.18 352.95 443.28C362.16 442 368.11 384.45 368.11 384.45L368.64 384.33L457.51 364.57C457.51 364.57 462.81 372.69 468.79 383.03C479.58 401.66 492.58 427.48 480.66 425.69Z" fill="#EC7580"/>
<path id="Vector_22" opacity="0.1" d="M458.43 388.65C459.36 390.5 443.61 399.76 436.21 396.98C428.81 394.2 410.28 408.98 408.43 410.87C406.58 412.76 364.91 408.09 364.91 408.09C366.639 400.254 367.885 392.319 368.64 384.33L457.51 364.57C457.51 364.57 462.81 372.69 468.79 383.03C463.26 385.3 457.98 387.74 458.43 388.65Z" fill="black"/>
<path id="Vector_23" d="M354.72 306.23C354.72 306.23 401.95 302.53 420.47 315.49C438.99 328.45 465.85 367.35 465.85 367.35L480.67 376.61C480.67 376.61 457.52 384.94 458.45 386.8C459.38 388.66 443.63 397.91 436.23 395.13C428.83 392.35 410.3 407.13 408.45 409.02C406.6 410.91 364.93 406.24 364.93 406.24C364.93 406.24 380.65 340.49 354.72 306.23Z" fill="#EC7580"/>
<path id="head" d="M695.94 561.35C685.22 561.09 433.19 554.55 409.13 527.71C383.51 499.13 408.38 416.78 429.32 357.32C452.11 292.59 424.94 199.64 424.67 198.58L426.46 198.11C426.74 199.18 454.05 292.67 431.07 357.93C398.5 450.44 391.77 505.57 410.51 526.47C434.05 552.72 693.37 559.47 695.99 559.47L695.94 561.35Z" fill="#DFE6F5"/>
<path id="Vector_24" d="M521.7 330.61L754.84 327.07C757.845 327.376 760.76 328.279 763.412 329.724C766.065 331.169 768.404 333.129 770.291 335.488C772.178 337.847 773.576 340.558 774.403 343.464C775.231 346.369 775.471 349.411 775.11 352.41L748.66 572.61C748.028 577.9 745.558 582.801 741.681 586.456C737.805 590.111 732.768 592.289 727.45 592.61L489.16 607.36C485.786 607.562 482.409 607.01 479.276 605.743C476.142 604.476 473.33 602.526 471.045 600.036C468.759 597.546 467.058 594.577 466.064 591.347C465.07 588.116 464.809 584.704 465.3 581.36L496.94 349.94C497.788 344.152 500.835 338.913 505.446 335.313C510.057 331.713 515.879 330.028 521.7 330.61Z" fill="#535461"/>
<path id="Vector_25" opacity="0.2" d="M521.7 330.61L754.84 327.07C757.845 327.376 760.76 328.279 763.412 329.724C766.065 331.169 768.404 333.129 770.291 335.488C772.178 337.847 773.576 340.558 774.403 343.464C775.231 346.369 775.471 349.411 775.11 352.41L748.66 572.61C748.028 577.9 745.558 582.801 741.681 586.456C737.805 590.111 732.768 592.289 727.45 592.61L489.16 607.36C485.786 607.562 482.409 607.01 479.276 605.743C476.142 604.476 473.33 602.526 471.045 600.036C468.759 597.546 467.058 594.577 466.064 591.347C465.07 588.116 464.809 584.704 465.3 581.36L496.94 349.94C497.788 344.152 500.835 338.913 505.446 335.313C510.057 331.713 515.879 330.028 521.7 330.61Z" fill="black"/>
<path id="Vector_26" d="M523.55 330.61L756.69 327.07C759.699 327.372 762.617 328.27 765.275 329.713C767.932 331.157 770.275 333.115 772.166 335.475C774.058 337.835 775.459 340.548 776.289 343.456C777.119 346.363 777.361 349.408 777 352.41L750.55 572.61C749.918 577.9 747.448 582.801 743.571 586.456C739.695 590.111 734.658 592.289 729.34 592.61L491.02 607.36C487.646 607.562 484.269 607.01 481.136 605.743C478.002 604.476 475.19 602.526 472.905 600.036C470.619 597.546 468.918 594.577 467.924 591.347C466.93 588.116 466.669 584.704 467.16 581.36L498.8 349.94C499.648 344.154 502.693 338.916 507.302 335.317C511.912 331.717 517.73 330.031 523.55 330.61Z" fill="#535461"/>
<path id="Vector_27" opacity="0.3" d="M637.62 466.89C643.756 466.89 648.73 461.916 648.73 455.78C648.73 449.644 643.756 444.67 637.62 444.67C631.484 444.67 626.51 449.644 626.51 455.78C626.51 461.916 631.484 466.89 637.62 466.89Z" fill="white"/>
<path id="hand" d="M454.73 555.34C433.43 580.34 324.16 574.79 324.16 574.79L283.41 585.89L168.58 619.23C141.58 584.23 142.18 500.82 143.65 467.08C144.05 458.02 144.5 452.54 144.5 452.54C144.5 452.54 183.39 428.46 200.99 452.54C204.13 456.83 206.76 462.83 208.99 469.79C219.2 501.88 220.45 554.4 220.45 554.4L266.75 549.77L334.02 533.77C338.656 532.667 343.405 532.113 348.17 532.12C376.05 532.2 473.01 533.88 454.73 555.34Z" fill="#FDC2CC"/>
<path id="Vector_28" opacity="0.1" d="M208.98 469.8C203.07 468.52 195.9 468.8 186.18 472.92C166.73 481.25 151.92 479.4 151.92 479.4C151.92 479.4 153.11 469.95 143.66 467.08C144.06 458.02 144.51 452.54 144.51 452.54C144.51 452.54 183.4 428.46 201 452.54C204.11 456.83 206.76 462.83 208.98 469.8Z" fill="black"/>
<path id="Vector_29" opacity="0.1" d="M324.11 468.29C323.49 468.42 315.16 469.99 299.11 466.43C282.44 462.73 275.96 470.13 266.7 473.84C257.44 477.55 233.41 479.4 224.11 475.7C221.92 474.82 219.72 473.7 217.39 472.7C215.189 463.748 211.859 455.112 207.48 447L314.07 447.5L323.73 467.41L324.11 468.29Z" fill="black"/>
<path id="Vector_30" d="M324.11 466.44C324.11 466.44 315.78 468.29 299.11 464.59C282.44 460.89 275.96 468.29 266.7 472C257.44 475.71 233.36 477.56 224.1 473.85C214.84 470.14 205.58 462.74 186.1 471.07C166.62 479.4 151.84 477.55 151.84 477.55C151.84 477.55 153.69 462.73 134.25 464.55C114.81 466.37 101.84 457.14 101.84 457.14L122.5 409.42L128.7 395.09L283.64 384.5H284.38L324.11 466.44Z" fill="#EC7580"/>
<path id="Vector_31" d="M254.7 312.71C254.7 312.71 203.77 302.52 179.7 315.49C155.63 328.46 137.11 357.16 137.11 357.16L101.91 389.57C101.91 389.57 115.8 396.05 122.28 407.16C128.76 418.27 158.4 407.16 158.4 407.16C158.4 407.16 198.22 397.9 203.78 411.79C209.34 425.68 235.27 418.27 235.27 418.27C235.27 418.27 288.98 403.45 299.17 420.12L254.7 312.71Z" fill="#EC7580"/>
<path id="head" d="M429.59 387.66C425.01 399.72 411.43 405.73 398.73 408.02C386.209 410.269 373.378 410.154 360.9 407.68C371.954 396.172 379.108 381.479 381.35 365.68C384.76 341.13 375.99 316.07 379.6 291.56C383.31 266.39 399.71 244.31 402.55 219.03C396.91 222.67 390.42 215.75 387.46 209.72C382.034 198.634 377.451 187.155 373.75 175.38C369.16 160.76 365.05 144.38 352.43 135.7C350.2 134.16 347.19 132.92 344.88 134.35C343.19 135.35 342.53 137.46 342.04 139.35C337.7 156.35 315.76 169.71 309.55 186.14C303.64 201.73 292.98 215.14 287.15 230.79C273.79 266.59 309.05 310.73 311.15 348.89C312.09 365.74 310.69 382.63 309.29 399.44C309.06 402.13 308.63 405.17 306.4 406.68C304.939 407.473 303.277 407.821 301.62 407.68C294.127 407.725 286.681 406.48 279.61 404C276.76 403 273.9 401.78 270.88 401.73C266.42 401.66 262.36 404.11 258.08 405.39C243.65 409.73 228.63 400.44 218.15 389.62C207.67 378.8 198.79 365.69 185.31 359C180.9 356.8 175.13 353.62 176.31 348.83C176.875 347.199 177.866 345.749 179.18 344.63C184.64 339.14 190.38 333.83 194.85 327.51C201.59 317.96 205.1 306.57 208.52 295.39C213.46 279.21 218.45 262.63 217.52 245.74C217.08 237.37 215.18 229.14 214.45 220.74C213.01 204.1 216.27 187.46 219.51 171.08C221.71 159.92 224.1 148.35 230.97 139.28C235.64 133.12 242.06 128.55 247.3 122.86C255.12 114.37 260.02 103.67 266.36 94.02C272.7 84.37 281.3 75.23 292.58 72.78C299.41 71.29 306.52 72.43 313.42 73.58C318.93 74.51 324.57 75.47 329.78 77.58C333.89 79.22 337.67 83.27 341.88 84.04C350.26 85.61 359.47 82.32 368.44 84.44C385.89 88.55 401.81 100.25 409.55 116.6C411.064 119.836 412.341 123.178 413.37 126.6C414.85 131.4 415.98 136.31 417.1 141.21C417.34 142.21 417.57 143.29 417.79 144.32C424.64 176.88 420.22 200.59 417.23 234.46C414.24 268.33 413.51 313.71 422.93 346.46C426.86 360.14 434.63 374.39 429.59 387.66Z" fill="#865A61"/>
<path id="head" d="M417.78 144.31C402.49 116.76 371.45 97.87 335.78 97.87C284.98 97.87 243.64 136.09 243.64 183.07H237.11C237.11 132.52 281.36 91.39 335.73 91.39C367.21 91.39 395.29 105.17 413.36 126.59C414.84 131.39 415.97 136.3 417.09 141.2C417.34 142.25 417.57 143.28 417.78 144.31Z" fill="#535461"/>
<path id="head" d="M250.89 156H259.42V215H250.89C244.376 215 238.129 212.412 233.523 207.807C228.918 203.201 226.33 196.954 226.33 190.44V180.62C226.322 177.39 226.952 174.19 228.182 171.203C229.413 168.216 231.221 165.502 233.502 163.215C235.784 160.928 238.494 159.113 241.477 157.875C244.461 156.637 247.66 156 250.89 156Z" fill="#DFE6F5"/>
<path id="head" d="M260.63 156.05H258.21C254.88 156.05 252.18 158.75 252.18 162.08V208.97C252.18 212.3 254.88 215 258.21 215H260.63C263.96 215 266.66 212.3 266.66 208.97V162.08C266.66 158.75 263.96 156.05 260.63 156.05Z" fill="#535461"/>
</g>
</g>
<defs>
<linearGradient id="paint0_linear" x1="830" y1="133" x2="175.5" y2="653.5" gradientUnits="userSpaceOnUse">
<stop stop-color="#EEE620"/>
<stop offset="0.647625" stop-color="#F4B124" stop-opacity="0.57158"/>
<stop offset="0.9999" stop-color="#F89426" stop-opacity="0.338542"/>
<stop offset="1" stop-color="#E09BA1" stop-opacity="0"/>
</linearGradient>
<clipPath id="clip0">
<rect width="1140.21" height="776" fill="white"/>
</clipPath>
</defs>
</svg>
